<?xml version="1.0" encoding="UTF-8"?>
<svg xmlns="http://www.w3.org/2000/svg" viewBox="200 80 680 580">
  <path fill="#1a1a1a" d="M566.9,561.9v-17.2c0-11.2-8.3-20.7-19.4-22.3-64.1-9.4-113.5-64.8-113.5-131.5s49.4-122.1,113.5-131.5c11.1-1.6,19.4-11.1,19.4-22.3v-17.2c0-12.4,10-22.6,22.4-22.6,1,0,1.9,0,2.9.2,95.4,12.7,169.2,94.6,169.2,193.4s-73.9,180.7-169.3,193.5c-12.3,1.5-23.6-7.2-25.1-19.6-.1-.9-.2-1.9-.2-2.9ZM309.4,390.9c0-133.3,101.9-243.3,231.9-256.2,12.4-1.3,23.6,7.8,24.9,20.2,0,.8.1,1.5.1,2.3v16.4c0,11.5-8.5,21.2-19.9,22.5-98.3,10.3-175.2,93.7-175.2,194.7s76.8,184.4,175.1,194.7c11.4,1.3,20,11,19.9,22.5v16.5c0,12.5-10.2,22.6-22.7,22.6-.8,0-1.6,0-2.3-.1-129.9-12.9-231.8-122.8-231.8-256.2h0ZM824.3,390.9c0-135-104.2-246.1-236.5-257.1-11.8-.9-20.9-10.7-20.9-22.5v-17.3c0-12.5-10-22.6-22.5-22.6-.5,0-1,0-1.5,0-165.5,12.3-296.3,150.9-296.3,319.4s130.8,307.1,296.3,319.4c12.4.8,23.1-8.6,24-21,0-.5,0-1,0-1.5v-17.2c0-11.8,9.1-21.6,20.9-22.5,132.2-11,236.5-122.1,236.5-257.1h0Z"/>
</svg>
