<svg id="Layer_1" data-name="Layer 1" xmlns="http://www.w3.org/2000/svg" viewBox="0 0 1080 1080"><defs><style>.cls-1{fill:#e9e6df;}.cls-2{fill:#982b2e;}</style></defs><rect class="cls-1" width="1080" height="1080"/><path class="cls-2" d="M565.44,775.06V751.49a31.08,31.08,0,0,0-26.64-30.7c-88.12-13-156-89.08-156-180.75s67.88-167.79,156-180.74a31.05,31.05,0,0,0,26.64-30.7V305c0-18.65,16.33-33.29,34.81-30.83C731.34,291.68,832.81,404.24,832.81,540S731.34,788.4,600.25,805.89C581.77,808.35,565.44,793.67,565.44,775.06ZM211.64,540c0-183.21,140-334.33,318.66-352a31.15,31.15,0,0,1,34.28,30.92v22.67c0,15.76-11.74,29.27-27.37,30.91C402.1,286.63,296.44,401.22,296.44,540S402.1,793.37,537.21,807.53c15.67,1.64,27.37,15.2,27.37,30.92v22.67A31.11,31.11,0,0,1,530.3,892C351.67,874.33,211.64,723.2,211.64,540Zm707.52,0c0-185.54-143.26-338.26-325-353.38a31.1,31.1,0,0,1-28.72-30.91V132.05a31,31,0,0,0-33-31C305.08,118,125.28,308.39,125.28,540s179.8,422,407.13,439c17.88,1.34,33-13.08,33-31V924.29a31.11,31.11,0,0,1,28.72-30.92C775.9,878.26,919.16,725.58,919.16,540Z"/></svg>