<svg id="Layer_1" data-name="Layer 1" xmlns="http://www.w3.org/2000/svg" viewBox="0 0 1080 1080"><defs><style>.cls-1{fill:#e9e6df;}.cls-2{fill:#982b2e;}</style></defs><rect class="cls-1" width="1080" height="1080"/><path class="cls-2" d="M566.87,561.93V544.77a22.62,22.62,0,0,0-19.39-22.34C483.35,513,434,457.61,434,390.91s49.39-122.1,113.52-131.53a22.59,22.59,0,0,0,19.39-22.33V219.89a22.51,22.51,0,0,1,25.32-22.43c95.39,12.72,169.23,94.63,169.23,193.45S687.58,571.63,592.19,584.36A22.53,22.53,0,0,1,566.87,561.93Zm-257.46-171c0-133.32,101.87-243.29,231.88-256.17a22.66,22.66,0,0,1,25,22.5V173.7a22.51,22.51,0,0,1-19.92,22.5c-98.31,10.31-175.2,93.69-175.2,194.68S448,575.25,546.32,585.55a22.52,22.52,0,0,1,19.92,22.5v16.49a22.64,22.64,0,0,1-25,22.5C411.31,634.16,309.41,524.19,309.41,390.88Zm514.85,0c0-135-104.25-246.15-236.5-257.14a22.64,22.64,0,0,1-20.89-22.5V94a22.55,22.55,0,0,0-24-22.56C377.41,83.78,246.58,222.34,246.58,390.88S377.41,697.94,542.83,710.29a22.53,22.53,0,0,0,24-22.56V670.51A22.62,22.62,0,0,1,587.76,648C720,637,824.26,525.92,824.26,390.88Z"/><path class="cls-2" d="M240.06,852.3c0-20.52,11.13-31.93,32.71-31.93,19.82,0,30.78,9.65,32.37,27.11H291.89c-1.48-11.76-8.41-16.14-19.12-16.14-12.11,0-19.57,5.61-19.57,21s7.46,21,19.57,21c10.25,0,17.1-4,18.86-14.74h13.42c-2.11,16.58-13,25.7-32.27,25.7-21.57,0-32.71-11.48-32.71-31.93Z"/><rect class="cls-2" x="309.54" y="821.69" width="13.16" height="61.4"/><polygon class="cls-2" points="348.3 832.65 327.08 832.65 327.08 821.69 382.78 821.69 382.78 832.65 361.46 832.65 361.46 883.09 348.3 883.09 348.3 832.65"/><polygon class="cls-2" points="413.92 858.53 387.17 821.69 402.69 821.69 420.67 847.12 438.48 821.69 453.83 821.69 427.07 858.53 427.07 883.09 413.92 883.09 413.92 858.53"/><path class="cls-2" d="M488.91,852.3c0-20.52,11.14-31.93,32.71-31.93,19.82,0,30.79,9.65,32.37,27.11H540.75c-1.49-11.76-8.42-16.14-19.13-16.14-12.11,0-19.56,5.61-19.56,21s7.45,21,19.56,21c10.26,0,17.11-4,18.86-14.74h13.43c-2.11,16.58-13,25.7-32.27,25.7-21.58,0-32.71-11.48-32.71-31.93Z"/><polygon class="cls-2" points="558.38 821.69 605.91 821.69 605.91 832.65 571.53 832.65 571.53 846.42 603.99 846.42 603.99 857.38 571.53 857.38 571.53 872.12 606.71 872.12 606.71 883.09 558.38 883.09 558.38 821.69"/><polygon class="cls-2" points="611.09 821.69 625.48 821.69 653.99 864.23 653.72 821.69 667.04 821.69 667.04 883.09 652.49 883.09 624.06 840.38 624.33 883.09 611.09 883.09 611.09 821.69"/><polygon class="cls-2" points="692.66 832.65 671.44 832.65 671.44 821.69 727.14 821.69 727.14 832.65 705.82 832.65 705.82 883.09 692.66 883.09 692.66 832.65"/><path class="cls-2" d="M769.77,840.73c0-6.66-5.18-8.06-14.74-8.06H744.67v16.39H755C764.15,849.06,769.77,848.19,769.77,840.73Zm-38.24-19H754.6c14.83,0,28.33,2.63,28.33,18.5,0,11.32-5.79,16.31-14.12,18.42l18.42,24.48H771.44L753.89,860h-9.21v23.08H731.53Z"/><polygon class="cls-2" points="791.61 821.69 839.15 821.69 839.15 832.65 804.77 832.65 804.77 846.42 837.23 846.42 837.23 857.38 804.77 857.38 804.77 872.12 839.94 872.12 839.94 883.09 791.61 883.09 791.61 821.69"/><path class="cls-2" d="M414.89,947.37c0-12.45-6.49-18.77-20-18.77H381.46v39.47h13.43C408.05,968.07,414.89,961.32,414.89,947.37Zm-46.57-29.73h24c21.66,0,35.69,7.45,35.69,29.64S414.62,979,392.36,979h-24V917.64Z"/><path class="cls-2" d="M464,951.31l-7.63-18.69-7.72,18.69Zm-14.14-33.67h13.16L488.93,979H475.06L468,962H444.55l-7.11,17H423.68l26.23-61.4Z"/><rect class="cls-2" x="483.18" y="917.64" width="12.01" height="20"/><polygon class="cls-2" points="505.2 917.64 519.06 917.64 529.42 960.87 542.58 917.64 555.21 917.64 567.76 960.62 578.99 917.64 592.15 917.64 574.87 979.04 560.49 979.04 548.64 937.46 536.1 979.04 521.45 979.04 505.23 917.64 505.2 917.64"/><path class="cls-2" d="M626.33,951.31l-7.63-18.69L611,951.31Zm-14.12-33.67h13.16L651.24,979H637.38l-7.1-17H606.86l-7.1,17H586l26.23-61.4Z"/><polygon class="cls-2" points="655.63 917.64 668.78 917.64 668.78 942.55 698.52 942.55 698.52 917.64 711.68 917.64 711.68 979.04 698.52 979.04 698.52 953.51 668.78 953.51 668.78 979.04 655.63 979.04 655.63 917.64"/></svg>