<?xml version="1.0" encoding="UTF-8"?>
<svg id="Layer_1" xmlns="http://www.w3.org/2000/svg" version="1.1" viewBox="0 0 1080 1080">
  <!-- Generator: Adobe Illustrator 29.4.0, SVG Export Plug-In . SVG Version: 2.1.0 Build 152)  -->
  <path d="M566.9,561.9v-17.2c0-11.2-8.3-20.7-19.4-22.3-64.1-9.4-113.5-64.8-113.5-131.5s49.4-122.1,113.5-131.5c11.1-1.6,19.4-11.1,19.4-22.3v-17.2c0-12.4,10-22.6,22.4-22.6,1,0,1.9,0,2.9.2,95.4,12.7,169.2,94.6,169.2,193.4s-73.9,180.7-169.3,193.5c-12.3,1.5-23.6-7.2-25.1-19.6-.1-.9-.2-1.9-.2-2.9ZM309.4,390.9c0-133.3,101.9-243.3,231.9-256.2,12.4-1.3,23.6,7.8,24.9,20.2,0,.8.1,1.5.1,2.3v16.4c0,11.5-8.5,21.2-19.9,22.5-98.3,10.3-175.2,93.7-175.2,194.7s76.8,184.4,175.1,194.7c11.4,1.3,20,11,19.9,22.5v16.5c0,12.5-10.2,22.6-22.7,22.6-.8,0-1.6,0-2.3-.1-129.9-12.9-231.8-122.8-231.8-256.2h0ZM824.3,390.9c0-135-104.2-246.1-236.5-257.1-11.8-.9-20.9-10.7-20.9-22.5v-17.3c0-12.5-10-22.6-22.5-22.6-.5,0-1,0-1.5,0-165.5,12.3-296.3,150.9-296.3,319.4s130.8,307.1,296.3,319.4c12.4.8,23.1-8.6,24-21,0-.5,0-1,0-1.5v-17.2c0-11.8,9.1-21.6,20.9-22.5,132.2-11,236.5-122.1,236.5-257.1h0Z"/>
  <path d="M240.1,852.3c0-20.5,11.1-31.9,32.7-31.9s30.8,9.7,32.4,27.1h-13.2c-1.5-11.8-8.4-16.1-19.1-16.1s-19.6,5.6-19.6,21,7.5,21,19.6,21,17.1-4,18.9-14.7h13.4c-2.1,16.6-13,25.7-32.3,25.7s-32.7-11.5-32.7-31.9h0Z"/>
  <rect x="309.5" y="821.7" width="13.2" height="61.4"/>
  <polygon points="348.3 832.7 327.1 832.7 327.1 821.7 382.8 821.7 382.8 832.7 361.5 832.7 361.5 883.1 348.3 883.1 348.3 832.7"/>
  <polygon points="413.9 858.5 387.2 821.7 402.7 821.7 420.7 847.1 438.5 821.7 453.8 821.7 427.1 858.5 427.1 883.1 413.9 883.1 413.9 858.5"/>
  <path d="M488.9,852.3c0-20.5,11.1-31.9,32.7-31.9s30.8,9.7,32.4,27.1h-13.2c-1.5-11.8-8.4-16.1-19.1-16.1s-19.6,5.6-19.6,21,7.5,21,19.6,21,17.1-4,18.9-14.7h13.4c-2.1,16.6-13,25.7-32.3,25.7s-32.7-11.5-32.7-31.9h0Z"/>
  <polygon points="558.4 821.7 605.9 821.7 605.9 832.7 571.5 832.7 571.5 846.4 604 846.4 604 857.4 571.5 857.4 571.5 872.1 606.7 872.1 606.7 883.1 558.4 883.1 558.4 821.7"/>
  <polygon points="611.1 821.7 625.5 821.7 654 864.2 653.7 821.7 667 821.7 667 883.1 652.5 883.1 624.1 840.4 624.3 883.1 611.1 883.1 611.1 821.7"/>
  <polygon points="692.7 832.7 671.4 832.7 671.4 821.7 727.1 821.7 727.1 832.7 705.8 832.7 705.8 883.1 692.7 883.1 692.7 832.7"/>
  <path d="M769.8,840.7c0-6.7-5.2-8.1-14.7-8.1h-10.4v16.4h10.3c9.2,0,14.8-.9,14.8-8.3ZM731.5,821.7h23.1c14.8,0,28.3,2.6,28.3,18.5s-5.8,16.3-14.1,18.4l18.4,24.5h-15.8l-17.5-23.1h-9.2v23.1h-13.1v-61.4Z"/>
  <polygon points="791.6 821.7 839.2 821.7 839.2 832.7 804.8 832.7 804.8 846.4 837.2 846.4 837.2 857.4 804.8 857.4 804.8 872.1 839.9 872.1 839.9 883.1 791.6 883.1 791.6 821.7"/>
  <path d="M414.9,947.4c0-12.5-6.5-18.8-20-18.8h-13.4v39.5h13.4c13.2,0,20-6.7,20-20.7ZM368.3,917.6h24c21.7,0,35.7,7.5,35.7,29.6s-13.4,31.7-35.7,31.7h-24v-61.4h0Z"/>
  <path d="M464,951.3l-7.6-18.7-7.7,18.7h15.4ZM449.9,917.6h13.2l25.9,61.4h-13.9l-7.1-17h-23.5l-7.1,17h-13.8l26.2-61.4h0Z"/>
  <rect x="483.2" y="917.6" width="12" height="20"/>
  <polygon points="505.2 917.6 519.1 917.6 529.4 960.9 542.6 917.6 555.2 917.6 567.8 960.6 579 917.6 592.2 917.6 574.9 979 560.5 979 548.6 937.5 536.1 979 521.5 979 505.2 917.6 505.2 917.6"/>
  <path d="M626.3,951.3l-7.6-18.7-7.7,18.7h15.3ZM612.2,917.6h13.2l25.9,61.4h-13.9l-7.1-17h-23.4l-7.1,17h-13.8l26.2-61.4h0Z"/>
  <polygon points="655.6 917.6 668.8 917.6 668.8 942.5 698.5 942.5 698.5 917.6 711.7 917.6 711.7 979 698.5 979 698.5 953.5 668.8 953.5 668.8 979 655.6 979 655.6 917.6"/>
</svg>